<svg width="136" height="32" viewBox="0 0 136 32" fill="none" xmlns="http://www.w3.org/2000/svg">
<path d="M27.6547 22.9573L27.4813 22.7413C26.1093 21.0066 24.9627 20.104 23.9787 19.9853C23.128 19.8693 22.3053 20.4573 21.4307 21.0626L20.496 21.6466C20.384 21.7026 20.2733 21.748 20.1693 21.7786C19.6227 21.9333 18.2427 22.024 17.4613 21.3093C16.552 20.4773 15.1413 18.9546 14.044 17.624C12.996 16.2466 11.844 14.5293 11.2427 13.448C10.7347 12.532 11.16 11.2506 11.444 10.776C11.5 10.6826 11.5733 10.5906 11.6547 10.5L12.4787 9.73865C12.4907 9.72665 12.496 9.71198 12.5067 9.70131C12.5147 9.69331 12.528 9.69598 12.5373 9.68931C13.2813 9.06131 14.0507 8.41465 14.156 7.58398C14.28 6.60798 13.6733 5.28798 12.2987 3.55465L12.1307 3.33865C11.28 2.24798 9.99332 0.598646 8.14532 0.870646C7.41866 0.978646 6.76932 1.22665 6.09999 1.64665C6.09332 1.65065 6.08932 1.65865 6.08399 1.66265C6.07866 1.66665 6.07199 1.66665 6.06666 1.67065L5.13466 2.36131C5.12532 2.36665 5.11999 2.37865 5.11066 2.38665C5.10399 2.39331 5.09332 2.39465 5.08532 2.40131C4.97732 2.49198 4.86932 2.58531 4.76266 2.68131C3.81732 3.52398 1.77066 5.97065 3.16666 10.496C4.06799 13.4186 5.92666 16.8293 8.55466 20.3786L8.52932 20.4L9.97866 22.2053L9.99066 22.196C12.84 25.5666 15.74 28.172 18.3973 29.7493C20.1707 30.8026 21.72 31.1506 22.9947 31.1506C24.672 31.1506 25.8733 30.548 26.476 30.156L26.8547 29.9026C26.8973 29.8733 26.928 29.832 26.9587 29.7946L27.784 29.1733C27.7933 29.1653 27.7987 29.1546 27.808 29.1466C27.812 29.1426 27.8187 29.144 27.824 29.14C28.4107 28.604 28.8173 28.0426 29.1 27.3773C29.832 25.672 28.5213 24.0386 27.6547 22.9573ZM28.12 26.9586C27.9 27.476 27.5787 27.916 27.1147 28.3426L25.8867 29.2666C24.7747 29.9893 22.3973 30.8826 18.944 28.832C16.2867 27.2546 13.3613 24.588 10.4827 21.12L9.70399 20.136C6.99332 16.5413 5.08666 13.0986 4.18666 10.1813C3.01732 6.38798 4.49066 4.35331 5.47732 3.47465C5.57732 3.38398 5.67732 3.29998 5.77599 3.21598L5.77999 3.21198L6.67466 2.54931C7.21866 2.20531 7.72266 2.01331 8.30266 1.92531C9.54132 1.73865 10.5493 3.04531 11.2893 3.99465L11.4627 4.21465C12.9987 6.15198 13.1467 7.07331 13.0987 7.44931C13.0453 7.86665 12.4107 8.40131 11.8507 8.87198L11.772 8.93865C11.7693 8.94131 11.768 8.94531 11.7653 8.94798C11.7613 8.95065 11.7573 8.95198 11.7533 8.95465L10.9013 9.74265C10.896 9.74798 10.8933 9.75465 10.888 9.76131C10.8827 9.76798 10.872 9.77065 10.8667 9.77731C10.7347 9.92531 10.6213 10.0733 10.5293 10.2266C10.0507 11.028 9.59866 12.684 10.312 13.9653C10.9347 15.0853 12.12 16.8546 13.2093 18.284C14.348 19.6653 15.8 21.2333 16.7413 22.0933C17.4467 22.7373 18.428 22.9533 19.2773 22.9533C19.732 22.9533 20.1493 22.8906 20.4653 22.8013C20.632 22.7533 20.804 22.684 20.9813 22.5973C20.992 22.592 20.9973 22.5826 21.008 22.576C21.0133 22.5733 21.0213 22.5746 21.0267 22.5706L22.016 21.952C22.048 21.9306 22.0693 21.9026 22.096 21.876L22.108 21.8893C22.7173 21.4666 23.412 20.9706 23.8467 21.0426C24.232 21.0893 25.1067 21.46 26.6453 23.4026L26.8227 23.6253C27.572 24.56 28.5987 25.84 28.12 26.9586Z" fill="white"/>
<path d="M75.9867 2.12797C74.6417 1.98529 73.2899 1.91586 71.9374 1.91997C67.4534 1.91997 64.6667 4.77597 64.6667 9.37331V12.4946H60.9001C60.7233 12.4946 60.5537 12.5649 60.4287 12.6899C60.3036 12.8149 60.2334 12.9845 60.2334 13.1613V18.2946C60.2334 18.4714 60.3036 18.641 60.4287 18.766C60.5537 18.8911 60.7233 18.9613 60.9001 18.9613H64.6667V29.2546C64.6667 29.4314 64.737 29.601 64.862 29.726C64.987 29.8511 65.1566 29.9213 65.3334 29.9213H70.6374C70.8142 29.9213 70.9838 29.8511 71.1088 29.726C71.2338 29.601 71.3041 29.4314 71.3041 29.2546V18.9613H75.0587C75.2206 18.9614 75.3769 18.9026 75.4986 18.7959C75.6203 18.6891 75.699 18.5418 75.7201 18.3813L76.3827 13.248C76.3951 13.1539 76.3872 13.0582 76.3596 12.9675C76.332 12.8767 76.2853 12.7928 76.2227 12.7215C76.1601 12.6502 76.083 12.593 75.9966 12.5539C75.9101 12.5148 75.8163 12.4946 75.7214 12.4946H71.3041V9.88264C71.3041 8.58931 71.5641 8.04931 73.1814 8.04931H75.9001C76.0769 8.04931 76.2464 7.97907 76.3715 7.85404C76.4965 7.72902 76.5667 7.55945 76.5667 7.38264V2.78931C76.5668 2.62745 76.508 2.47109 76.4013 2.34941C76.2946 2.22772 76.1472 2.14901 75.9867 2.12797ZM75.2334 6.71464L73.1801 6.71597C70.3041 6.71597 69.9707 8.52397 69.9707 9.88264V13.1626C69.9707 13.3392 70.0408 13.5086 70.1655 13.6336C70.2903 13.7586 70.4595 13.829 70.6361 13.8293H74.9641L74.4721 17.6293H70.6374C70.4606 17.6293 70.291 17.6995 70.166 17.8246C70.041 17.9496 69.9707 18.1192 69.9707 18.296V28.5866H66.0001V18.296C66.0001 18.1192 65.9298 17.9496 65.8048 17.8246C65.6798 17.6995 65.5102 17.6293 65.3334 17.6293H61.5681V13.8293H65.3334C65.5102 13.8293 65.6798 13.7591 65.8048 13.634C65.9298 13.509 66.0001 13.3394 66.0001 13.1626V9.37331C66.0001 5.54131 68.2201 3.25331 71.9374 3.25331C73.2827 3.25331 74.4974 3.32664 75.2334 3.39064V6.71464Z" fill="white"/>
<path d="M120 10.25C118.863 10.25 117.751 10.5872 116.805 11.219C115.86 11.8509 115.123 12.7489 114.688 13.7996C114.252 14.8502 114.139 16.0064 114.36 17.1218C114.582 18.2372 115.13 19.2617 115.934 20.0659C116.738 20.87 117.763 21.4177 118.878 21.6395C119.994 21.8614 121.15 21.7475 122.2 21.3123C123.251 20.8771 124.149 20.1401 124.781 19.1945C125.413 18.2489 125.75 17.1372 125.75 16C125.75 14.475 125.144 13.0125 124.066 11.9341C122.988 10.8558 121.525 10.25 120 10.25ZM120 20.25C119.159 20.25 118.338 20.0007 117.639 19.5337C116.94 19.0668 116.395 18.403 116.074 17.6264C115.752 16.8498 115.668 15.9953 115.832 15.1709C115.996 14.3464 116.4 13.5892 116.995 12.9948C117.589 12.4004 118.346 11.9956 119.171 11.8317C119.995 11.6677 120.85 11.7518 121.626 12.0735C122.403 12.3952 123.067 12.9399 123.534 13.6388C124.001 14.3377 124.25 15.1594 124.25 16C124.247 17.1262 123.798 18.2052 123.002 19.0016C122.205 19.7979 121.126 20.2467 120 20.25ZM125.5 3.75H114.5C112.71 3.75 110.993 4.46116 109.727 5.72703C108.461 6.9929 107.75 8.70979 107.75 10.5V21.5C107.75 23.2902 108.461 25.0071 109.727 26.273C110.993 27.5388 112.71 28.25 114.5 28.25H125.5C127.29 28.25 129.007 27.5388 130.273 26.273C131.539 25.0071 132.25 23.2902 132.25 21.5V10.5C132.25 8.70979 131.539 6.9929 130.273 5.72703C129.007 4.46116 127.29 3.75 125.5 3.75ZM130.75 21.5C130.75 22.8924 130.197 24.2277 129.212 25.2123C128.228 26.1969 126.892 26.75 125.5 26.75H114.5C113.108 26.75 111.772 26.1969 110.788 25.2123C109.803 24.2277 109.25 22.8924 109.25 21.5V10.5C109.25 9.10761 109.803 7.77225 110.788 6.78769C111.772 5.80312 113.108 5.25 114.5 5.25H125.5C126.892 5.25 128.228 5.80312 129.212 6.78769C130.197 7.77225 130.75 9.10761 130.75 10.5V21.5ZM127.75 9.5C127.75 9.74723 127.677 9.9889 127.539 10.1945C127.402 10.4 127.207 10.5602 126.978 10.6548C126.75 10.7495 126.499 10.7742 126.256 10.726C126.014 10.6778 125.791 10.5587 125.616 10.3839C125.441 10.2091 125.322 9.98634 125.274 9.74386C125.226 9.50139 125.251 9.25005 125.345 9.02165C125.44 8.79324 125.6 8.59801 125.806 8.46066C126.011 8.32331 126.253 8.25 126.5 8.25C126.832 8.25 127.149 8.3817 127.384 8.61612C127.618 8.85054 127.75 9.16848 127.75 9.5Z" fill="white"/>
</svg>
